<mxfile host="app.diagrams.net" modified="2022-05-05T12:00:00.209Z" agent="5.0 (X11; Linux x86_64) AppleWebKit/537.36 (KHTML, like Gecko) Chrome/101.0.4951.41 Safari/537.36" etag="VKav8E6ERLefqySp9PIK" version="18.0.0" type="github">
  <diagram id="iAbyK8pKXisrJIql5Mq7" name="Page-1">
    <mxGraphModel dx="3980" dy="1946" grid="0" gridSize="10" guides="1" tooltips="1" connect="1" arrows="1" fold="1" page="0" pageScale="1" pageWidth="827" pageHeight="1169" math="0" shadow="0">
      <root>
        <mxCell id="0" />
        <mxCell id="1" parent="0" />
        <mxCell id="l1szmI_GFWI639Pi0zfL-63" value="" style="whiteSpace=wrap;html=1;fillColor=#dae8fc;strokeColor=#6c8ebf;" parent="1" vertex="1">
          <mxGeometry x="587" y="837" width="1957" height="1336" as="geometry" />
        </mxCell>
        <mxCell id="l1szmI_GFWI639Pi0zfL-167" value="" style="rounded=0;whiteSpace=wrap;html=1;fontSize=12;fillColor=#ffcc99;strokeColor=#36393d;" parent="1" vertex="1">
          <mxGeometry x="2997" y="-106" width="1036" height="551" as="geometry" />
        </mxCell>
        <mxCell id="l1szmI_GFWI639Pi0zfL-116" value="" style="whiteSpace=wrap;html=1;fontSize=22;fillColor=#e1d5e7;strokeColor=#9673a6;" parent="1" vertex="1">
          <mxGeometry x="3306" y="704" width="757" height="588" as="geometry" />
        </mxCell>
        <mxCell id="l1szmI_GFWI639Pi0zfL-126" value="" style="group" parent="1" vertex="1" connectable="0">
          <mxGeometry x="889.9999999999999" y="-42.5" width="750.0000000000001" height="367" as="geometry" />
        </mxCell>
        <mxCell id="l1szmI_GFWI639Pi0zfL-72" value="" style="whiteSpace=wrap;html=1;fontSize=22;fillColor=#f8cecc;strokeColor=#b85450;" parent="l1szmI_GFWI639Pi0zfL-126" vertex="1">
          <mxGeometry width="750" height="367" as="geometry" />
        </mxCell>
        <mxCell id="l1szmI_GFWI639Pi0zfL-74" value="Generic Errors" style="text;html=1;strokeColor=none;fillColor=none;align=center;verticalAlign=middle;whiteSpace=wrap;rounded=0;fontSize=22;fontStyle=1" parent="l1szmI_GFWI639Pi0zfL-126" vertex="1">
          <mxGeometry x="168.1793478260871" y="11" width="413.6413043478261" height="30" as="geometry" />
        </mxCell>
        <mxCell id="l1szmI_GFWI639Pi0zfL-123" value="" style="group" parent="1" vertex="1" connectable="0">
          <mxGeometry x="2656" y="839" width="587" height="641.5" as="geometry" />
        </mxCell>
        <mxCell id="l1szmI_GFWI639Pi0zfL-120" value="" style="whiteSpace=wrap;html=1;aspect=fixed;fontSize=22;fillColor=#fff2cc;strokeColor=#d6b656;" parent="l1szmI_GFWI639Pi0zfL-123" vertex="1">
          <mxGeometry x="-69" width="641.5" height="641.5" as="geometry" />
        </mxCell>
        <mxCell id="l1szmI_GFWI639Pi0zfL-121" value="Routers Front-end" style="text;html=1;strokeColor=none;fillColor=none;align=center;verticalAlign=middle;whiteSpace=wrap;rounded=0;fontSize=22;fontStyle=1" parent="l1szmI_GFWI639Pi0zfL-123" vertex="1">
          <mxGeometry x="168.75" y="7.6299999999999955" width="220.5" height="30.37" as="geometry" />
        </mxCell>
        <mxCell id="l1szmI_GFWI639Pi0zfL-105" value="" style="group" parent="1" vertex="1" connectable="0">
          <mxGeometry x="7" y="-42.5" width="870" height="632.5" as="geometry" />
        </mxCell>
        <mxCell id="l1szmI_GFWI639Pi0zfL-66" value="" style="whiteSpace=wrap;html=1;fontSize=22;fillColor=#cdeb8b;strokeColor=#36393d;" parent="l1szmI_GFWI639Pi0zfL-105" vertex="1">
          <mxGeometry width="870" height="632.5" as="geometry" />
        </mxCell>
        <mxCell id="l1szmI_GFWI639Pi0zfL-67" value="Auth Module" style="text;html=1;strokeColor=none;fillColor=none;align=center;verticalAlign=middle;whiteSpace=wrap;rounded=0;fontSize=22;fontStyle=1" parent="l1szmI_GFWI639Pi0zfL-105" vertex="1">
          <mxGeometry x="203.92268690349945" y="12.549603174603174" width="415.1546261930011" height="30.11904761904762" as="geometry" />
        </mxCell>
        <mxCell id="l1szmI_GFWI639Pi0zfL-78" value="dashboardPage" style="shape=process;whiteSpace=wrap;html=1;backgroundOutline=1;fontSize=16;" parent="1" vertex="1">
          <mxGeometry x="649.5" y="499.37" width="167" height="41.25" as="geometry" />
        </mxCell>
        <mxCell id="l1szmI_GFWI639Pi0zfL-95" style="edgeStyle=orthogonalEdgeStyle;rounded=0;orthogonalLoop=1;jettySize=auto;html=1;exitX=1;exitY=0.5;exitDx=0;exitDy=0;entryX=0;entryY=0.5;entryDx=0;entryDy=0;fontSize=22;strokeWidth=1;" parent="1" source="l1szmI_GFWI639Pi0zfL-88" target="l1szmI_GFWI639Pi0zfL-89" edge="1">
          <mxGeometry relative="1" as="geometry" />
        </mxCell>
        <mxCell id="l1szmI_GFWI639Pi0zfL-88" value="registerPage" style="shape=process;whiteSpace=wrap;html=1;backgroundOutline=1;fontSize=16;" parent="1" vertex="1">
          <mxGeometry x="180" y="499.37" width="167" height="41.25" as="geometry" />
        </mxCell>
        <mxCell id="l1szmI_GFWI639Pi0zfL-96" style="edgeStyle=orthogonalEdgeStyle;rounded=0;orthogonalLoop=1;jettySize=auto;html=1;exitX=1;exitY=0.5;exitDx=0;exitDy=0;entryX=0;entryY=0.5;entryDx=0;entryDy=0;fontSize=22;strokeWidth=1;" parent="1" source="l1szmI_GFWI639Pi0zfL-89" target="l1szmI_GFWI639Pi0zfL-78" edge="1">
          <mxGeometry relative="1" as="geometry" />
        </mxCell>
        <mxCell id="l1szmI_GFWI639Pi0zfL-89" value="verificationPage" style="shape=process;whiteSpace=wrap;html=1;backgroundOutline=1;fontSize=16;" parent="1" vertex="1">
          <mxGeometry x="414" y="499.37" width="167" height="41.25" as="geometry" />
        </mxCell>
        <mxCell id="l1szmI_GFWI639Pi0zfL-90" value="loginPage" style="shape=process;whiteSpace=wrap;html=1;backgroundOutline=1;fontSize=16;" parent="1" vertex="1">
          <mxGeometry x="356.5" y="59.379999999999995" width="167" height="41.25" as="geometry" />
        </mxCell>
        <mxCell id="l1szmI_GFWI639Pi0zfL-99" style="edgeStyle=orthogonalEdgeStyle;rounded=0;orthogonalLoop=1;jettySize=auto;html=1;exitX=1;exitY=0.5;exitDx=0;exitDy=0;entryX=1;entryY=0.5;entryDx=0;entryDy=0;fontSize=22;strokeWidth=1;" parent="1" source="l1szmI_GFWI639Pi0zfL-91" target="l1szmI_GFWI639Pi0zfL-78" edge="1">
          <mxGeometry relative="1" as="geometry" />
        </mxCell>
        <mxCell id="l1szmI_GFWI639Pi0zfL-91" value="forgetPasswordPage" style="shape=process;whiteSpace=wrap;html=1;backgroundOutline=1;fontSize=16;" parent="1" vertex="1">
          <mxGeometry x="550" y="269.38" width="227" height="41.25" as="geometry" />
        </mxCell>
        <mxCell id="l1szmI_GFWI639Pi0zfL-22" value="&lt;span style=&quot;&quot;&gt;forgetPassword&lt;/span&gt;" style="shape=step;perimeter=stepPerimeter;whiteSpace=wrap;html=1;fixedSize=1;" parent="1" vertex="1">
          <mxGeometry x="575" y="160" width="130" height="80" as="geometry" />
        </mxCell>
        <mxCell id="l1szmI_GFWI639Pi0zfL-82" style="edgeStyle=orthogonalEdgeStyle;rounded=0;orthogonalLoop=1;jettySize=auto;html=1;exitX=1;exitY=0.5;exitDx=0;exitDy=0;entryX=1;entryY=0.5;entryDx=0;entryDy=0;fontSize=22;strokeWidth=1;" parent="1" source="l1szmI_GFWI639Pi0zfL-22" target="l1szmI_GFWI639Pi0zfL-78" edge="1">
          <mxGeometry relative="1" as="geometry" />
        </mxCell>
        <mxCell id="l1szmI_GFWI639Pi0zfL-3" value="" style="edgeStyle=orthogonalEdgeStyle;rounded=0;orthogonalLoop=1;jettySize=auto;html=1;" parent="1" source="l1szmI_GFWI639Pi0zfL-1" target="l1szmI_GFWI639Pi0zfL-2" edge="1">
          <mxGeometry relative="1" as="geometry" />
        </mxCell>
        <mxCell id="l1szmI_GFWI639Pi0zfL-5" value="" style="edgeStyle=orthogonalEdgeStyle;rounded=0;orthogonalLoop=1;jettySize=auto;html=1;" parent="1" source="l1szmI_GFWI639Pi0zfL-1" target="l1szmI_GFWI639Pi0zfL-4" edge="1">
          <mxGeometry relative="1" as="geometry" />
        </mxCell>
        <mxCell id="l1szmI_GFWI639Pi0zfL-1" value="LandingPage" style="whiteSpace=wrap;html=1;aspect=fixed;" parent="1" vertex="1">
          <mxGeometry x="40" y="40" width="80" height="80" as="geometry" />
        </mxCell>
        <mxCell id="l1szmI_GFWI639Pi0zfL-100" style="edgeStyle=orthogonalEdgeStyle;rounded=0;orthogonalLoop=1;jettySize=auto;html=1;exitX=1;exitY=0.5;exitDx=0;exitDy=0;fontSize=22;strokeWidth=1;" parent="1" source="l1szmI_GFWI639Pi0zfL-2" target="l1szmI_GFWI639Pi0zfL-90" edge="1">
          <mxGeometry relative="1" as="geometry" />
        </mxCell>
        <mxCell id="l1szmI_GFWI639Pi0zfL-2" value="Sign In" style="shape=step;perimeter=stepPerimeter;whiteSpace=wrap;html=1;fixedSize=1;" parent="1" vertex="1">
          <mxGeometry x="180" y="40" width="120" height="80" as="geometry" />
        </mxCell>
        <mxCell id="l1szmI_GFWI639Pi0zfL-7" value="" style="edgeStyle=orthogonalEdgeStyle;rounded=0;orthogonalLoop=1;jettySize=auto;html=1;" parent="1" source="l1szmI_GFWI639Pi0zfL-4" target="l1szmI_GFWI639Pi0zfL-88" edge="1">
          <mxGeometry relative="1" as="geometry">
            <mxPoint x="220" y="520" as="targetPoint" />
          </mxGeometry>
        </mxCell>
        <mxCell id="l1szmI_GFWI639Pi0zfL-4" value="Sign Up" style="shape=step;perimeter=stepPerimeter;whiteSpace=wrap;html=1;fixedSize=1;" parent="1" vertex="1">
          <mxGeometry x="20" y="480" width="120" height="80" as="geometry" />
        </mxCell>
        <mxCell id="l1szmI_GFWI639Pi0zfL-23" value="No" style="edgeStyle=orthogonalEdgeStyle;rounded=0;orthogonalLoop=1;jettySize=auto;html=1;fillColor=#f8cecc;strokeColor=#b85450;" parent="1" source="l1szmI_GFWI639Pi0zfL-15" target="l1szmI_GFWI639Pi0zfL-22" edge="1">
          <mxGeometry relative="1" as="geometry" />
        </mxCell>
        <mxCell id="l1szmI_GFWI639Pi0zfL-83" value="Yes" style="edgeStyle=orthogonalEdgeStyle;rounded=0;orthogonalLoop=1;jettySize=auto;html=1;exitX=1;exitY=0.5;exitDx=0;exitDy=0;entryX=1;entryY=0.5;entryDx=0;entryDy=0;fontSize=22;strokeWidth=1;fillColor=#d5e8d4;strokeColor=#006600;" parent="1" source="l1szmI_GFWI639Pi0zfL-15" target="l1szmI_GFWI639Pi0zfL-78" edge="1">
          <mxGeometry relative="1" as="geometry" />
        </mxCell>
        <mxCell id="l1szmI_GFWI639Pi0zfL-15" value="isLogin?" style="rhombus;whiteSpace=wrap;html=1;" parent="1" vertex="1">
          <mxGeometry x="600" y="40" width="80" height="80" as="geometry" />
        </mxCell>
        <mxCell id="l1szmI_GFWI639Pi0zfL-98" style="edgeStyle=orthogonalEdgeStyle;rounded=0;orthogonalLoop=1;jettySize=auto;html=1;exitX=1;exitY=0.5;exitDx=0;exitDy=0;entryX=0;entryY=0.5;entryDx=0;entryDy=0;fontSize=22;strokeWidth=1;" parent="1" source="l1szmI_GFWI639Pi0zfL-18" target="l1szmI_GFWI639Pi0zfL-91" edge="1">
          <mxGeometry relative="1" as="geometry" />
        </mxCell>
        <mxCell id="l1szmI_GFWI639Pi0zfL-18" value="forgetPassword" style="shape=step;perimeter=stepPerimeter;whiteSpace=wrap;html=1;fixedSize=1;" parent="1" vertex="1">
          <mxGeometry x="375" y="250" width="130" height="80" as="geometry" />
        </mxCell>
        <mxCell id="l1szmI_GFWI639Pi0zfL-29" value="Yes" style="edgeStyle=orthogonalEdgeStyle;rounded=0;orthogonalLoop=1;jettySize=auto;html=1;entryX=0;entryY=0.5;entryDx=0;entryDy=0;fillColor=#d5e8d4;strokeColor=#82b366;" parent="1" source="l1szmI_GFWI639Pi0zfL-26" target="l1szmI_GFWI639Pi0zfL-93" edge="1">
          <mxGeometry relative="1" as="geometry">
            <mxPoint x="863" y="990" as="targetPoint" />
          </mxGeometry>
        </mxCell>
        <mxCell id="l1szmI_GFWI639Pi0zfL-31" value="No" style="edgeStyle=orthogonalEdgeStyle;rounded=0;orthogonalLoop=1;jettySize=auto;html=1;fillColor=#f8cecc;strokeColor=#b85450;" parent="1" source="l1szmI_GFWI639Pi0zfL-26" target="l1szmI_GFWI639Pi0zfL-30" edge="1">
          <mxGeometry relative="1" as="geometry" />
        </mxCell>
        <mxCell id="l1szmI_GFWI639Pi0zfL-26" value="isFirstLogin?" style="rhombus;whiteSpace=wrap;html=1;" parent="1" vertex="1">
          <mxGeometry x="678" y="950" width="110" height="80" as="geometry" />
        </mxCell>
        <mxCell id="l1szmI_GFWI639Pi0zfL-33" value="Yes" style="edgeStyle=orthogonalEdgeStyle;rounded=0;orthogonalLoop=1;jettySize=auto;html=1;fillColor=#d5e8d4;strokeColor=#82b366;" parent="1" source="l1szmI_GFWI639Pi0zfL-30" target="l1szmI_GFWI639Pi0zfL-32" edge="1">
          <mxGeometry relative="1" as="geometry" />
        </mxCell>
        <mxCell id="l1szmI_GFWI639Pi0zfL-35" value="No" style="edgeStyle=orthogonalEdgeStyle;rounded=0;orthogonalLoop=1;jettySize=auto;html=1;fillColor=#f8cecc;strokeColor=#b85450;" parent="1" source="l1szmI_GFWI639Pi0zfL-30" target="l1szmI_GFWI639Pi0zfL-34" edge="1">
          <mxGeometry relative="1" as="geometry" />
        </mxCell>
        <mxCell id="l1szmI_GFWI639Pi0zfL-30" value="haveATourInProgress?" style="rhombus;whiteSpace=wrap;html=1;" parent="1" vertex="1">
          <mxGeometry x="663" y="1110" width="140" height="100" as="geometry" />
        </mxCell>
        <mxCell id="l1szmI_GFWI639Pi0zfL-106" style="edgeStyle=orthogonalEdgeStyle;rounded=0;orthogonalLoop=1;jettySize=auto;html=1;exitX=1;exitY=0.5;exitDx=0;exitDy=0;entryX=0;entryY=0;entryDx=0;entryDy=30;fontSize=16;strokeWidth=1;entryPerimeter=0;" parent="1" source="l1szmI_GFWI639Pi0zfL-32" target="l1szmI_GFWI639Pi0zfL-131" edge="1">
          <mxGeometry relative="1" as="geometry">
            <mxPoint x="1142.0049999999997" y="1139.0099999999998" as="targetPoint" />
            <Array as="points">
              <mxPoint x="1046" y="1160" />
              <mxPoint x="1046" y="1068" />
            </Array>
          </mxGeometry>
        </mxCell>
        <mxCell id="l1szmI_GFWI639Pi0zfL-32" value="continueTour" style="shape=step;perimeter=stepPerimeter;whiteSpace=wrap;html=1;fixedSize=1;" parent="1" vertex="1">
          <mxGeometry x="869.5" y="1120" width="120" height="80" as="geometry" />
        </mxCell>
        <mxCell id="l1szmI_GFWI639Pi0zfL-37" value="Yes" style="edgeStyle=orthogonalEdgeStyle;rounded=0;orthogonalLoop=1;jettySize=auto;html=1;fillColor=#d5e8d4;strokeColor=#82b366;" parent="1" source="l1szmI_GFWI639Pi0zfL-34" target="l1szmI_GFWI639Pi0zfL-36" edge="1">
          <mxGeometry relative="1" as="geometry" />
        </mxCell>
        <mxCell id="l1szmI_GFWI639Pi0zfL-125" value="No" style="edgeStyle=orthogonalEdgeStyle;rounded=0;orthogonalLoop=1;jettySize=auto;html=1;exitX=0.5;exitY=1;exitDx=0;exitDy=0;fontSize=22;strokeColor=#b85450;strokeWidth=1;fillColor=#f8cecc;" parent="1" source="l1szmI_GFWI639Pi0zfL-34" target="l1szmI_GFWI639Pi0zfL-87" edge="1">
          <mxGeometry relative="1" as="geometry">
            <Array as="points">
              <mxPoint x="733" y="2108" />
              <mxPoint x="3117" y="2108" />
              <mxPoint x="3117" y="1153" />
            </Array>
          </mxGeometry>
        </mxCell>
        <mxCell id="l1szmI_GFWI639Pi0zfL-34" value="takeTour?" style="rhombus;whiteSpace=wrap;html=1;" parent="1" vertex="1">
          <mxGeometry x="663" y="1290" width="140" height="100" as="geometry" />
        </mxCell>
        <mxCell id="l1szmI_GFWI639Pi0zfL-134" style="edgeStyle=orthogonalEdgeStyle;rounded=0;orthogonalLoop=1;jettySize=auto;html=1;exitX=1;exitY=0.5;exitDx=0;exitDy=0;entryX=0;entryY=0;entryDx=0;entryDy=30;entryPerimeter=0;labelBackgroundColor=#FFFFCC;fontSize=22;fontColor=#000066;strokeColor=#000000;strokeWidth=1;" parent="1" source="l1szmI_GFWI639Pi0zfL-36" target="l1szmI_GFWI639Pi0zfL-131" edge="1">
          <mxGeometry relative="1" as="geometry">
            <Array as="points">
              <mxPoint x="1046" y="1340" />
              <mxPoint x="1046" y="1068" />
            </Array>
          </mxGeometry>
        </mxCell>
        <mxCell id="l1szmI_GFWI639Pi0zfL-36" value="startTour" style="shape=step;perimeter=stepPerimeter;whiteSpace=wrap;html=1;fixedSize=1;" parent="1" vertex="1">
          <mxGeometry x="869.5" y="1300" width="120" height="80" as="geometry" />
        </mxCell>
        <mxCell id="l1szmI_GFWI639Pi0zfL-53" value="" style="edgeStyle=orthogonalEdgeStyle;rounded=0;orthogonalLoop=1;jettySize=auto;html=1;" parent="1" source="l1szmI_GFWI639Pi0zfL-51" target="l1szmI_GFWI639Pi0zfL-52" edge="1">
          <mxGeometry relative="1" as="geometry" />
        </mxCell>
        <mxCell id="l1szmI_GFWI639Pi0zfL-141" value="" style="edgeStyle=orthogonalEdgeStyle;rounded=0;orthogonalLoop=1;jettySize=auto;html=1;labelBackgroundColor=#FFFFCC;fontSize=12;fontColor=#000066;strokeColor=#000000;strokeWidth=1;" parent="1" source="l1szmI_GFWI639Pi0zfL-51" target="l1szmI_GFWI639Pi0zfL-52" edge="1">
          <mxGeometry relative="1" as="geometry" />
        </mxCell>
        <mxCell id="l1szmI_GFWI639Pi0zfL-147" style="edgeStyle=orthogonalEdgeStyle;rounded=0;orthogonalLoop=1;jettySize=auto;html=1;entryX=0;entryY=0.5;entryDx=0;entryDy=0;labelBackgroundColor=#FFFFCC;fontSize=12;fontColor=#000066;strokeColor=#000000;strokeWidth=1;" parent="1" source="l1szmI_GFWI639Pi0zfL-51" target="l1szmI_GFWI639Pi0zfL-142" edge="1">
          <mxGeometry relative="1" as="geometry">
            <Array as="points">
              <mxPoint x="1096" y="109" />
              <mxPoint x="1096" y="208" />
            </Array>
          </mxGeometry>
        </mxCell>
        <mxCell id="l1szmI_GFWI639Pi0zfL-51" value="Client" style="whiteSpace=wrap;html=1;" parent="1" vertex="1">
          <mxGeometry x="938.18" y="78.505" width="120" height="60" as="geometry" />
        </mxCell>
        <mxCell id="l1szmI_GFWI639Pi0zfL-103" style="edgeStyle=orthogonalEdgeStyle;rounded=0;orthogonalLoop=1;jettySize=auto;html=1;exitX=1;exitY=0.5;exitDx=0;exitDy=0;entryX=0;entryY=0.5;entryDx=0;entryDy=0;fontSize=16;strokeWidth=1;" parent="1" source="l1szmI_GFWI639Pi0zfL-52" target="l1szmI_GFWI639Pi0zfL-92" edge="1">
          <mxGeometry relative="1" as="geometry" />
        </mxCell>
        <mxCell id="l1szmI_GFWI639Pi0zfL-52" value="notFoundPage" style="shape=step;perimeter=stepPerimeter;whiteSpace=wrap;html=1;fixedSize=1;" parent="1" vertex="1">
          <mxGeometry x="1138.18" y="68.505" width="140" height="80" as="geometry" />
        </mxCell>
        <mxCell id="l1szmI_GFWI639Pi0zfL-80" style="edgeStyle=orthogonalEdgeStyle;rounded=0;orthogonalLoop=1;jettySize=auto;html=1;exitX=0.5;exitY=1;exitDx=0;exitDy=0;entryX=0.5;entryY=0;entryDx=0;entryDy=0;fontSize=22;strokeWidth=1;" parent="1" source="l1szmI_GFWI639Pi0zfL-78" target="l1szmI_GFWI639Pi0zfL-26" edge="1">
          <mxGeometry relative="1" as="geometry" />
        </mxCell>
        <mxCell id="l1szmI_GFWI639Pi0zfL-108" style="edgeStyle=orthogonalEdgeStyle;rounded=0;orthogonalLoop=1;jettySize=auto;html=1;exitX=1;exitY=0.5;exitDx=0;exitDy=0;entryX=0;entryY=0;entryDx=0;entryDy=30;fontSize=16;strokeWidth=1;entryPerimeter=0;" parent="1" source="l1szmI_GFWI639Pi0zfL-93" target="l1szmI_GFWI639Pi0zfL-131" edge="1">
          <mxGeometry relative="1" as="geometry">
            <mxPoint x="1087" y="1084.0049999999999" as="targetPoint" />
            <Array as="points">
              <mxPoint x="1046" y="990" />
              <mxPoint x="1046" y="1068" />
            </Array>
          </mxGeometry>
        </mxCell>
        <mxCell id="l1szmI_GFWI639Pi0zfL-93" value="selectClassPage" style="shape=process;whiteSpace=wrap;html=1;backgroundOutline=1;fontSize=16;" parent="1" vertex="1">
          <mxGeometry x="846" y="969.38" width="167" height="41.25" as="geometry" />
        </mxCell>
        <mxCell id="l1szmI_GFWI639Pi0zfL-101" style="edgeStyle=orthogonalEdgeStyle;rounded=0;orthogonalLoop=1;jettySize=auto;html=1;exitX=1;exitY=0.5;exitDx=0;exitDy=0;fontSize=22;strokeWidth=1;" parent="1" source="l1szmI_GFWI639Pi0zfL-90" target="l1szmI_GFWI639Pi0zfL-15" edge="1">
          <mxGeometry relative="1" as="geometry" />
        </mxCell>
        <mxCell id="l1szmI_GFWI639Pi0zfL-102" style="edgeStyle=orthogonalEdgeStyle;rounded=0;orthogonalLoop=1;jettySize=auto;html=1;exitX=0.5;exitY=1;exitDx=0;exitDy=0;fontSize=22;strokeWidth=1;" parent="1" source="l1szmI_GFWI639Pi0zfL-90" target="l1szmI_GFWI639Pi0zfL-18" edge="1">
          <mxGeometry relative="1" as="geometry" />
        </mxCell>
        <mxCell id="l1szmI_GFWI639Pi0zfL-112" value="" style="group" parent="1" vertex="1" connectable="0">
          <mxGeometry x="1673" y="-42.5" width="516" height="516" as="geometry" />
        </mxCell>
        <mxCell id="l1szmI_GFWI639Pi0zfL-110" value="" style="whiteSpace=wrap;html=1;aspect=fixed;fontSize=16;fillColor=#d5e8d4;strokeColor=#82b366;" parent="l1szmI_GFWI639Pi0zfL-112" vertex="1">
          <mxGeometry width="516" height="516" as="geometry" />
        </mxCell>
        <mxCell id="l1szmI_GFWI639Pi0zfL-111" value="&lt;font style=&quot;&quot;&gt;&lt;span style=&quot;font-size: 22px;&quot;&gt;&lt;b&gt;Payment&lt;/b&gt;&lt;/span&gt;&lt;b style=&quot;font-size: 22px;&quot;&gt;&amp;nbsp;Module&lt;/b&gt;&lt;/font&gt;" style="text;html=1;strokeColor=none;fillColor=none;align=center;verticalAlign=middle;whiteSpace=wrap;rounded=0;fontSize=16;" parent="l1szmI_GFWI639Pi0zfL-112" vertex="1">
          <mxGeometry x="129.5" y="28" width="257" height="28" as="geometry" />
        </mxCell>
        <mxCell id="l1szmI_GFWI639Pi0zfL-92" value="404Page" style="shape=process;whiteSpace=wrap;html=1;backgroundOutline=1;fontSize=16;" parent="1" vertex="1">
          <mxGeometry x="1370" y="87.88" width="167" height="41.25" as="geometry" />
        </mxCell>
        <mxCell id="l1szmI_GFWI639Pi0zfL-128" value="" style="group" parent="1" vertex="1" connectable="0">
          <mxGeometry x="1274" y="911" width="906.5" height="120" as="geometry" />
        </mxCell>
        <mxCell id="l1szmI_GFWI639Pi0zfL-71" value="" style="rounded=1;whiteSpace=wrap;html=1;fontSize=22;fillColor=#FF9933;" parent="l1szmI_GFWI639Pi0zfL-128" vertex="1">
          <mxGeometry x="61.5" width="845" height="120" as="geometry" />
        </mxCell>
        <mxCell id="l1szmI_GFWI639Pi0zfL-109" value="" style="group" parent="l1szmI_GFWI639Pi0zfL-128" vertex="1" connectable="0">
          <mxGeometry x="78" y="12.5" width="812" height="85" as="geometry" />
        </mxCell>
        <mxCell id="l1szmI_GFWI639Pi0zfL-40" value="FinanceClass&lt;br&gt;(the prosperous)" style="shape=step;perimeter=stepPerimeter;whiteSpace=wrap;html=1;fixedSize=1;" parent="l1szmI_GFWI639Pi0zfL-109" vertex="1">
          <mxGeometry y="2.5" width="140" height="80" as="geometry" />
        </mxCell>
        <mxCell id="l1szmI_GFWI639Pi0zfL-56" value="createWallet" style="shape=hexagon;perimeter=hexagonPerimeter2;whiteSpace=wrap;html=1;fixedSize=1;" parent="l1szmI_GFWI639Pi0zfL-109" vertex="1">
          <mxGeometry x="232" y="2.5" width="120" height="80" as="geometry" />
        </mxCell>
        <mxCell id="l1szmI_GFWI639Pi0zfL-58" value="createMonthlyRevenue" style="shape=hexagon;perimeter=hexagonPerimeter2;whiteSpace=wrap;html=1;fixedSize=1;" parent="l1szmI_GFWI639Pi0zfL-109" vertex="1">
          <mxGeometry x="432" width="150" height="85" as="geometry" />
        </mxCell>
        <mxCell id="l1szmI_GFWI639Pi0zfL-60" value="createMonthlyExpenses" style="shape=hexagon;perimeter=hexagonPerimeter2;whiteSpace=wrap;html=1;fixedSize=1;" parent="l1szmI_GFWI639Pi0zfL-109" vertex="1">
          <mxGeometry x="662" width="150" height="85" as="geometry" />
        </mxCell>
        <mxCell id="l1szmI_GFWI639Pi0zfL-57" value="" style="edgeStyle=orthogonalEdgeStyle;rounded=0;orthogonalLoop=1;jettySize=auto;html=1;" parent="l1szmI_GFWI639Pi0zfL-109" source="l1szmI_GFWI639Pi0zfL-40" target="l1szmI_GFWI639Pi0zfL-56" edge="1">
          <mxGeometry relative="1" as="geometry" />
        </mxCell>
        <mxCell id="l1szmI_GFWI639Pi0zfL-59" value="" style="edgeStyle=orthogonalEdgeStyle;rounded=0;orthogonalLoop=1;jettySize=auto;html=1;" parent="l1szmI_GFWI639Pi0zfL-109" source="l1szmI_GFWI639Pi0zfL-56" target="l1szmI_GFWI639Pi0zfL-58" edge="1">
          <mxGeometry relative="1" as="geometry" />
        </mxCell>
        <mxCell id="l1szmI_GFWI639Pi0zfL-61" value="" style="edgeStyle=orthogonalEdgeStyle;rounded=0;orthogonalLoop=1;jettySize=auto;html=1;" parent="l1szmI_GFWI639Pi0zfL-109" source="l1szmI_GFWI639Pi0zfL-58" target="l1szmI_GFWI639Pi0zfL-60" edge="1">
          <mxGeometry relative="1" as="geometry" />
        </mxCell>
        <mxCell id="l1szmI_GFWI639Pi0zfL-77" value="&amp;nbsp;module/finance/dashboard&amp;nbsp;" style="edgeStyle=orthogonalEdgeStyle;rounded=0;orthogonalLoop=1;jettySize=auto;html=1;exitX=1;exitY=0.5;exitDx=0;exitDy=0;fontSize=22;strokeWidth=2;strokeColor=#007FFF;fontStyle=1;fontColor=#000066;labelBackgroundColor=#FFFFCC;" parent="1" source="l1szmI_GFWI639Pi0zfL-60" target="l1szmI_GFWI639Pi0zfL-76" edge="1">
          <mxGeometry relative="1" as="geometry" />
        </mxCell>
        <mxCell id="l1szmI_GFWI639Pi0zfL-133" style="edgeStyle=orthogonalEdgeStyle;rounded=0;orthogonalLoop=1;jettySize=auto;html=1;exitX=0;exitY=0;exitDx=120.00000000000001;exitDy=50;exitPerimeter=0;entryX=0;entryY=0.5;entryDx=0;entryDy=0;labelBackgroundColor=#FFFFCC;fontSize=22;fontColor=#000066;strokeColor=#000000;strokeWidth=1;" parent="1" source="l1szmI_GFWI639Pi0zfL-131" target="l1szmI_GFWI639Pi0zfL-71" edge="1">
          <mxGeometry relative="1" as="geometry">
            <Array as="points">
              <mxPoint x="1269" y="1088" />
              <mxPoint x="1269" y="971" />
            </Array>
          </mxGeometry>
        </mxCell>
        <mxCell id="l1szmI_GFWI639Pi0zfL-135" value="" style="endArrow=none;dashed=1;html=1;dashPattern=1 3;strokeWidth=2;rounded=0;labelBackgroundColor=#FFFFCC;fontSize=12;fontColor=#000066;entryX=0;entryY=1;entryDx=0;entryDy=0;fillColor=#647687;strokeColor=#314354;exitX=1;exitY=1;exitDx=0;exitDy=0;" parent="1" source="l1szmI_GFWI639Pi0zfL-78" target="l1szmI_GFWI639Pi0zfL-87" edge="1">
          <mxGeometry width="50" height="50" relative="1" as="geometry">
            <mxPoint x="2045" y="593" as="sourcePoint" />
            <mxPoint x="2095" y="543" as="targetPoint" />
          </mxGeometry>
        </mxCell>
        <mxCell id="l1szmI_GFWI639Pi0zfL-137" value="" style="endArrow=none;dashed=1;html=1;dashPattern=1 3;strokeWidth=2;rounded=0;labelBackgroundColor=#FFFFCC;fontSize=12;fontColor=#000066;entryX=0;entryY=1;entryDx=0;entryDy=0;fillColor=#647687;strokeColor=#314354;exitX=1;exitY=1;exitDx=0;exitDy=0;" parent="1" source="l1szmI_GFWI639Pi0zfL-93" edge="1" target="l1szmI_GFWI639Pi0zfL-136">
          <mxGeometry width="50" height="50" relative="1" as="geometry">
            <mxPoint x="826.4999999999991" y="730.6199999999999" as="sourcePoint" />
            <mxPoint x="3036" y="845.25" as="targetPoint" />
          </mxGeometry>
        </mxCell>
        <mxCell id="l1szmI_GFWI639Pi0zfL-146" style="edgeStyle=orthogonalEdgeStyle;rounded=0;orthogonalLoop=1;jettySize=auto;html=1;exitX=1;exitY=0.5;exitDx=0;exitDy=0;entryX=0;entryY=0.5;entryDx=0;entryDy=0;labelBackgroundColor=#FFFFCC;fontSize=12;fontColor=#000066;strokeColor=#000000;strokeWidth=1;" parent="1" source="l1szmI_GFWI639Pi0zfL-142" target="l1szmI_GFWI639Pi0zfL-144" edge="1">
          <mxGeometry relative="1" as="geometry" />
        </mxCell>
        <mxCell id="l1szmI_GFWI639Pi0zfL-142" value="serverNotFound" style="shape=step;perimeter=stepPerimeter;whiteSpace=wrap;html=1;fixedSize=1;rotation=359;" parent="1" vertex="1">
          <mxGeometry x="1138.18" y="167.505" width="140" height="80" as="geometry" />
        </mxCell>
        <mxCell id="l1szmI_GFWI639Pi0zfL-144" value="500Page" style="shape=process;whiteSpace=wrap;html=1;backgroundOutline=1;fontSize=16;" parent="1" vertex="1">
          <mxGeometry x="1370" y="186.13" width="167" height="41.25" as="geometry" />
        </mxCell>
        <mxCell id="l1szmI_GFWI639Pi0zfL-148" value="LockPage" style="shape=process;whiteSpace=wrap;html=1;backgroundOutline=1;fontSize=16;" parent="1" vertex="1">
          <mxGeometry x="3851" y="857.0000000000001" width="167" height="41.25" as="geometry" />
        </mxCell>
        <mxCell id="l1szmI_GFWI639Pi0zfL-163" style="edgeStyle=orthogonalEdgeStyle;rounded=0;orthogonalLoop=1;jettySize=auto;html=1;exitX=0;exitY=0;exitDx=120;exitDy=50;exitPerimeter=0;entryX=0;entryY=0.5;entryDx=10;entryDy=0;entryPerimeter=0;labelBackgroundColor=#FFFFCC;fontSize=12;fontColor=#000066;strokeColor=#000000;strokeWidth=1;" parent="1" source="l1szmI_GFWI639Pi0zfL-151" target="l1szmI_GFWI639Pi0zfL-152" edge="1">
          <mxGeometry relative="1" as="geometry">
            <Array as="points">
              <mxPoint x="3472" y="239" />
              <mxPoint x="3472" y="131" />
            </Array>
          </mxGeometry>
        </mxCell>
        <mxCell id="l1szmI_GFWI639Pi0zfL-164" style="edgeStyle=orthogonalEdgeStyle;rounded=0;orthogonalLoop=1;jettySize=auto;html=1;exitX=0;exitY=0;exitDx=120;exitDy=50;exitPerimeter=0;entryX=0;entryY=0.5;entryDx=10;entryDy=0;entryPerimeter=0;labelBackgroundColor=#FFFFCC;fontSize=12;fontColor=#000066;strokeColor=#000000;strokeWidth=1;" parent="1" source="l1szmI_GFWI639Pi0zfL-151" target="l1szmI_GFWI639Pi0zfL-153" edge="1">
          <mxGeometry relative="1" as="geometry">
            <Array as="points">
              <mxPoint x="3471" y="239" />
              <mxPoint x="3471" y="208" />
            </Array>
          </mxGeometry>
        </mxCell>
        <mxCell id="l1szmI_GFWI639Pi0zfL-165" style="edgeStyle=orthogonalEdgeStyle;rounded=0;orthogonalLoop=1;jettySize=auto;html=1;exitX=0;exitY=0;exitDx=120;exitDy=50;exitPerimeter=0;entryX=0;entryY=0.5;entryDx=10;entryDy=0;entryPerimeter=0;labelBackgroundColor=#FFFFCC;fontSize=12;fontColor=#000066;strokeColor=#000000;strokeWidth=1;" parent="1" source="l1szmI_GFWI639Pi0zfL-151" target="l1szmI_GFWI639Pi0zfL-155" edge="1">
          <mxGeometry relative="1" as="geometry">
            <Array as="points">
              <mxPoint x="3472" y="239" />
              <mxPoint x="3472" y="284" />
            </Array>
          </mxGeometry>
        </mxCell>
        <mxCell id="l1szmI_GFWI639Pi0zfL-166" style="edgeStyle=orthogonalEdgeStyle;rounded=0;orthogonalLoop=1;jettySize=auto;html=1;exitX=0;exitY=0;exitDx=120;exitDy=50;exitPerimeter=0;entryX=0;entryY=0.5;entryDx=10;entryDy=0;entryPerimeter=0;labelBackgroundColor=#FFFFCC;fontSize=12;fontColor=#000066;strokeColor=#000000;strokeWidth=1;" parent="1" source="l1szmI_GFWI639Pi0zfL-151" target="l1szmI_GFWI639Pi0zfL-157" edge="1">
          <mxGeometry relative="1" as="geometry">
            <Array as="points">
              <mxPoint x="3472" y="239" />
              <mxPoint x="3472" y="361" />
            </Array>
          </mxGeometry>
        </mxCell>
        <mxCell id="l1szmI_GFWI639Pi0zfL-151" value="&lt;font style=&quot;font-size: 12px;&quot;&gt;GlobalContainer&lt;/font&gt;" style="shape=cube;whiteSpace=wrap;html=1;boundedLbl=1;backgroundOutline=1;darkOpacity=0.05;darkOpacity2=0.1;fontSize=22;fontColor=#000066;fillColor=#FF9933;" parent="1" vertex="1">
          <mxGeometry x="3303" y="189" width="120" height="80" as="geometry" />
        </mxCell>
        <mxCell id="l1szmI_GFWI639Pi0zfL-171" style="edgeStyle=orthogonalEdgeStyle;rounded=0;orthogonalLoop=1;jettySize=auto;html=1;exitX=1;exitY=0.5;exitDx=0;exitDy=0;exitPerimeter=0;entryX=0;entryY=0.5;entryDx=0;entryDy=0;labelBackgroundColor=#FFFFCC;fontSize=12;fontColor=#000066;strokeColor=#000000;strokeWidth=1;" parent="1" source="l1szmI_GFWI639Pi0zfL-152" target="l1szmI_GFWI639Pi0zfL-170" edge="1">
          <mxGeometry relative="1" as="geometry" />
        </mxCell>
        <mxCell id="l1szmI_GFWI639Pi0zfL-174" style="edgeStyle=orthogonalEdgeStyle;rounded=0;orthogonalLoop=1;jettySize=auto;html=1;exitX=1;exitY=0.5;exitDx=0;exitDy=0;exitPerimeter=0;entryX=0;entryY=0.5;entryDx=0;entryDy=0;labelBackgroundColor=#FFFFCC;fontSize=12;fontColor=#000066;strokeColor=#000000;strokeWidth=1;" parent="1" source="l1szmI_GFWI639Pi0zfL-152" target="l1szmI_GFWI639Pi0zfL-172" edge="1">
          <mxGeometry relative="1" as="geometry" />
        </mxCell>
        <mxCell id="l1szmI_GFWI639Pi0zfL-179" style="edgeStyle=orthogonalEdgeStyle;rounded=0;orthogonalLoop=1;jettySize=auto;html=1;exitX=1;exitY=0.5;exitDx=0;exitDy=0;exitPerimeter=0;labelBackgroundColor=#FFFFCC;fontSize=12;fontColor=#000066;strokeColor=#000000;strokeWidth=1;" parent="1" source="l1szmI_GFWI639Pi0zfL-152" target="l1szmI_GFWI639Pi0zfL-177" edge="1">
          <mxGeometry relative="1" as="geometry" />
        </mxCell>
        <mxCell id="l1szmI_GFWI639Pi0zfL-180" style="edgeStyle=orthogonalEdgeStyle;rounded=0;orthogonalLoop=1;jettySize=auto;html=1;exitX=1;exitY=0.5;exitDx=0;exitDy=0;exitPerimeter=0;entryX=0;entryY=0.5;entryDx=0;entryDy=0;labelBackgroundColor=#FFFFCC;fontSize=12;fontColor=#000066;strokeColor=#000000;strokeWidth=1;" parent="1" source="l1szmI_GFWI639Pi0zfL-152" target="l1szmI_GFWI639Pi0zfL-175" edge="1">
          <mxGeometry relative="1" as="geometry" />
        </mxCell>
        <mxCell id="l1szmI_GFWI639Pi0zfL-152" value="NavBar" style="html=1;shadow=0;dashed=0;align=center;verticalAlign=middle;shape=mxgraph.arrows2.arrow;dy=0;dx=10;notch=10;fontSize=12;fillColor=#f9f7ed;strokeColor=#36393d;" parent="1" vertex="1">
          <mxGeometry x="3543" y="116" width="100" height="30" as="geometry" />
        </mxCell>
        <mxCell id="l1szmI_GFWI639Pi0zfL-114" value="Modules Pages" style="text;html=1;strokeColor=none;fillColor=none;align=center;verticalAlign=middle;whiteSpace=wrap;rounded=0;fontSize=22;fontStyle=1" parent="1" vertex="1">
          <mxGeometry x="3586.5" y="732" width="196" height="29" as="geometry" />
        </mxCell>
        <mxCell id="l1szmI_GFWI639Pi0zfL-136" value="selectClassPage" style="shape=process;whiteSpace=wrap;html=1;backgroundOutline=1;fontSize=16;" parent="1" vertex="1">
          <mxGeometry x="3466" y="794" width="167" height="41.25" as="geometry" />
        </mxCell>
        <mxCell id="l1szmI_GFWI639Pi0zfL-87" value="dashboardPage" style="shape=process;whiteSpace=wrap;html=1;backgroundOutline=1;fontSize=16;" parent="1" vertex="1">
          <mxGeometry x="3463.5" y="1132" width="167" height="41.25" as="geometry" />
        </mxCell>
        <mxCell id="l1szmI_GFWI639Pi0zfL-139" value="Logout" style="shape=process;whiteSpace=wrap;html=1;backgroundOutline=1;fontSize=16;" parent="1" vertex="1">
          <mxGeometry x="3851" y="920" width="167" height="41.25" as="geometry" />
        </mxCell>
        <mxCell id="l1szmI_GFWI639Pi0zfL-169" style="edgeStyle=orthogonalEdgeStyle;rounded=0;orthogonalLoop=1;jettySize=auto;html=1;exitX=1;exitY=0.5;exitDx=0;exitDy=0;exitPerimeter=0;entryX=0.5;entryY=0;entryDx=0;entryDy=0;labelBackgroundColor=#FFFFCC;fontSize=12;fontColor=#000066;strokeColor=#000000;strokeWidth=1;" parent="1" source="l1szmI_GFWI639Pi0zfL-155" target="l1szmI_GFWI639Pi0zfL-116" edge="1">
          <mxGeometry relative="1" as="geometry" />
        </mxCell>
        <mxCell id="l1szmI_GFWI639Pi0zfL-155" value="Body" style="html=1;shadow=0;dashed=0;align=center;verticalAlign=middle;shape=mxgraph.arrows2.arrow;dy=0;dx=10;notch=10;fontSize=12;fillColor=#f9f7ed;strokeColor=#36393d;" parent="1" vertex="1">
          <mxGeometry x="3543" y="269" width="100" height="30" as="geometry" />
        </mxCell>
        <mxCell id="l1szmI_GFWI639Pi0zfL-153" value="SideBar" style="html=1;shadow=0;dashed=0;align=center;verticalAlign=middle;shape=mxgraph.arrows2.arrow;dy=0;dx=10;notch=10;fontSize=12;fillColor=#f9f7ed;strokeColor=#36393d;" parent="1" vertex="1">
          <mxGeometry x="3543" y="193" width="100" height="30" as="geometry" />
        </mxCell>
        <mxCell id="l1szmI_GFWI639Pi0zfL-157" value="Footer" style="html=1;shadow=0;dashed=0;align=center;verticalAlign=middle;shape=mxgraph.arrows2.arrow;dy=0;dx=10;notch=10;fontSize=12;fillColor=#f9f7ed;strokeColor=#36393d;" parent="1" vertex="1">
          <mxGeometry x="3543" y="346" width="100" height="30" as="geometry" />
        </mxCell>
        <mxCell id="l1szmI_GFWI639Pi0zfL-170" value="search" style="ellipse;whiteSpace=wrap;html=1;fontSize=12;fillColor=#cce5ff;strokeColor=#36393d;" parent="1" vertex="1">
          <mxGeometry x="3735" y="-56.49" width="40" height="40" as="geometry" />
        </mxCell>
        <mxCell id="l1szmI_GFWI639Pi0zfL-172" value="translate" style="ellipse;whiteSpace=wrap;html=1;fontSize=12;fillColor=#cce5ff;strokeColor=#36393d;" parent="1" vertex="1">
          <mxGeometry x="3735" width="40" height="40" as="geometry" />
        </mxCell>
        <mxCell id="l1szmI_GFWI639Pi0zfL-175" value="notification" style="ellipse;whiteSpace=wrap;html=1;fontSize=12;fillColor=#cce5ff;strokeColor=#36393d;" parent="1" vertex="1">
          <mxGeometry x="3734.5" y="56" width="40" height="40" as="geometry" />
        </mxCell>
        <mxCell id="l1szmI_GFWI639Pi0zfL-192" style="edgeStyle=orthogonalEdgeStyle;rounded=0;orthogonalLoop=1;jettySize=auto;html=1;exitX=1;exitY=0.5;exitDx=0;exitDy=0;entryX=0;entryY=0.5;entryDx=0;entryDy=0;labelBackgroundColor=#FFFFCC;fontSize=12;fontColor=#000066;strokeColor=#000000;strokeWidth=1;" parent="1" source="l1szmI_GFWI639Pi0zfL-177" target="l1szmI_GFWI639Pi0zfL-186" edge="1">
          <mxGeometry relative="1" as="geometry" />
        </mxCell>
        <mxCell id="l1szmI_GFWI639Pi0zfL-193" style="edgeStyle=orthogonalEdgeStyle;rounded=0;orthogonalLoop=1;jettySize=auto;html=1;exitX=1;exitY=0.5;exitDx=0;exitDy=0;entryX=0;entryY=0.5;entryDx=0;entryDy=0;labelBackgroundColor=#FFFFCC;fontSize=12;fontColor=#000066;strokeColor=#000000;strokeWidth=1;" parent="1" source="l1szmI_GFWI639Pi0zfL-177" target="l1szmI_GFWI639Pi0zfL-188" edge="1">
          <mxGeometry relative="1" as="geometry" />
        </mxCell>
        <mxCell id="l1szmI_GFWI639Pi0zfL-194" style="edgeStyle=orthogonalEdgeStyle;rounded=0;orthogonalLoop=1;jettySize=auto;html=1;exitX=1;exitY=0.5;exitDx=0;exitDy=0;entryX=0;entryY=0.5;entryDx=0;entryDy=0;labelBackgroundColor=#FFFFCC;fontSize=12;fontColor=#000066;strokeColor=#000000;strokeWidth=1;" parent="1" source="l1szmI_GFWI639Pi0zfL-177" target="l1szmI_GFWI639Pi0zfL-190" edge="1">
          <mxGeometry relative="1" as="geometry" />
        </mxCell>
        <mxCell id="l1szmI_GFWI639Pi0zfL-177" value="profile" style="ellipse;whiteSpace=wrap;html=1;fontSize=12;fillColor=#cce5ff;strokeColor=#36393d;" parent="1" vertex="1">
          <mxGeometry x="3734.5" y="111.50999999999999" width="40" height="40" as="geometry" />
        </mxCell>
        <mxCell id="l1szmI_GFWI639Pi0zfL-181" value="" style="endArrow=none;dashed=1;html=1;dashPattern=1 3;strokeWidth=2;rounded=0;labelBackgroundColor=#FFFFCC;fontSize=12;fontColor=#000066;entryX=0;entryY=0;entryDx=20;entryDy=80;fillColor=#647687;strokeColor=#314354;exitX=1;exitY=1;exitDx=0;exitDy=0;exitPerimeter=0;entryPerimeter=0;" parent="1" source="l1szmI_GFWI639Pi0zfL-131" target="l1szmI_GFWI639Pi0zfL-151" edge="1">
          <mxGeometry width="50" height="50" relative="1" as="geometry">
            <mxPoint x="826.5" y="550.6199999999999" as="sourcePoint" />
            <mxPoint x="3043.5" y="1003.25" as="targetPoint" />
          </mxGeometry>
        </mxCell>
        <mxCell id="hYCsNhbhX6GddkuJcz4E-6" style="edgeStyle=orthogonalEdgeStyle;rounded=0;orthogonalLoop=1;jettySize=auto;html=1;exitX=1;exitY=0.5;exitDx=0;exitDy=0;entryX=0.5;entryY=0;entryDx=0;entryDy=0;" edge="1" parent="1" source="l1szmI_GFWI639Pi0zfL-186" target="hYCsNhbhX6GddkuJcz4E-3">
          <mxGeometry relative="1" as="geometry">
            <Array as="points">
              <mxPoint x="4050" y="76" />
              <mxPoint x="4050" y="774" />
              <mxPoint x="3935" y="774" />
            </Array>
          </mxGeometry>
        </mxCell>
        <mxCell id="l1szmI_GFWI639Pi0zfL-186" value="settings" style="ellipse;whiteSpace=wrap;html=1;fontSize=12;fillColor=#cce5ff;strokeColor=#36393d;" parent="1" vertex="1">
          <mxGeometry x="3854.5" y="56" width="40" height="40" as="geometry" />
        </mxCell>
        <mxCell id="l1szmI_GFWI639Pi0zfL-198" style="edgeStyle=orthogonalEdgeStyle;rounded=0;orthogonalLoop=1;jettySize=auto;html=1;exitX=1;exitY=0.5;exitDx=0;exitDy=0;labelBackgroundColor=#FFFFCC;fontSize=12;fontColor=#000066;strokeColor=#000000;strokeWidth=1;entryX=0.5;entryY=0;entryDx=0;entryDy=0;" parent="1" source="l1szmI_GFWI639Pi0zfL-188" target="l1szmI_GFWI639Pi0zfL-148" edge="1">
          <mxGeometry relative="1" as="geometry">
            <Array as="points">
              <mxPoint x="4095" y="20" />
              <mxPoint x="4095" y="841" />
              <mxPoint x="3935" y="841" />
              <mxPoint x="3935" y="857" />
            </Array>
          </mxGeometry>
        </mxCell>
        <mxCell id="l1szmI_GFWI639Pi0zfL-188" value="lockScreen" style="ellipse;whiteSpace=wrap;html=1;fontSize=12;fillColor=#cce5ff;strokeColor=#36393d;" parent="1" vertex="1">
          <mxGeometry x="3854.5" width="40" height="40" as="geometry" />
        </mxCell>
        <mxCell id="l1szmI_GFWI639Pi0zfL-195" style="edgeStyle=orthogonalEdgeStyle;rounded=0;orthogonalLoop=1;jettySize=auto;html=1;exitX=1;exitY=0.5;exitDx=0;exitDy=0;entryX=0.5;entryY=0;entryDx=0;entryDy=0;labelBackgroundColor=#FFFFCC;fontSize=12;fontColor=#000066;strokeColor=#000000;strokeWidth=1;" parent="1" source="l1szmI_GFWI639Pi0zfL-190" target="l1szmI_GFWI639Pi0zfL-139" edge="1">
          <mxGeometry relative="1" as="geometry">
            <Array as="points">
              <mxPoint x="4156" y="-37" />
              <mxPoint x="4156" y="906" />
              <mxPoint x="3935" y="906" />
            </Array>
          </mxGeometry>
        </mxCell>
        <mxCell id="l1szmI_GFWI639Pi0zfL-190" value="logout" style="ellipse;whiteSpace=wrap;html=1;fontSize=12;fillColor=#cce5ff;strokeColor=#36393d;" parent="1" vertex="1">
          <mxGeometry x="3854.5" y="-56.49" width="40" height="40" as="geometry" />
        </mxCell>
        <mxCell id="HuZAC9ORnwRWYZ2LM2c1-27" value="" style="edgeStyle=orthogonalEdgeStyle;rounded=0;orthogonalLoop=1;jettySize=auto;html=1;" parent="1" source="HuZAC9ORnwRWYZ2LM2c1-1" target="HuZAC9ORnwRWYZ2LM2c1-26" edge="1">
          <mxGeometry relative="1" as="geometry" />
        </mxCell>
        <mxCell id="HuZAC9ORnwRWYZ2LM2c1-1" value="BodyClass&lt;br&gt;(the warrior)" style="shape=step;perimeter=stepPerimeter;whiteSpace=wrap;html=1;fixedSize=1;" parent="1" vertex="1">
          <mxGeometry x="1352.1659574468085" y="1348.01" width="160.70212765957447" height="80" as="geometry" />
        </mxCell>
        <mxCell id="HuZAC9ORnwRWYZ2LM2c1-21" value="" style="edgeStyle=orthogonalEdgeStyle;rounded=0;orthogonalLoop=1;jettySize=auto;html=1;" parent="1" source="HuZAC9ORnwRWYZ2LM2c1-3" target="HuZAC9ORnwRWYZ2LM2c1-20" edge="1">
          <mxGeometry relative="1" as="geometry" />
        </mxCell>
        <mxCell id="HuZAC9ORnwRWYZ2LM2c1-3" value="LifeStyleClass&lt;br&gt;(the Time Lord)" style="shape=step;perimeter=stepPerimeter;whiteSpace=wrap;html=1;fixedSize=1;" parent="1" vertex="1">
          <mxGeometry x="1352.1659574468085" y="1508.01" width="160.70212765957447" height="80" as="geometry" />
        </mxCell>
        <mxCell id="HuZAC9ORnwRWYZ2LM2c1-5" value="MindClass&lt;br&gt;(the alchemist)" style="shape=step;perimeter=stepPerimeter;whiteSpace=wrap;html=1;fixedSize=1;" parent="1" vertex="1">
          <mxGeometry x="1352.1659574468085" y="1668.01" width="160.70212765957447" height="80" as="geometry" />
        </mxCell>
        <mxCell id="HuZAC9ORnwRWYZ2LM2c1-7" value="RelationClass&lt;br&gt;(the social)" style="shape=step;perimeter=stepPerimeter;whiteSpace=wrap;html=1;fixedSize=1;" parent="1" vertex="1">
          <mxGeometry x="1352.1659574468085" y="1828.01" width="160.70212765957447" height="80" as="geometry" />
        </mxCell>
        <mxCell id="HuZAC9ORnwRWYZ2LM2c1-9" value="ProfessionalClass&lt;br&gt;(the artisan)" style="shape=step;perimeter=stepPerimeter;whiteSpace=wrap;html=1;fixedSize=1;" parent="1" vertex="1">
          <mxGeometry x="1352.1659574468085" y="1988.01" width="160.70212765957447" height="80" as="geometry" />
        </mxCell>
        <mxCell id="HuZAC9ORnwRWYZ2LM2c1-13" style="edgeStyle=orthogonalEdgeStyle;rounded=0;orthogonalLoop=1;jettySize=auto;html=1;exitX=0;exitY=0;exitDx=119.99999999999999;exitDy=50;exitPerimeter=0;entryX=0;entryY=0.5;entryDx=0;entryDy=0;" parent="1" source="l1szmI_GFWI639Pi0zfL-131" target="HuZAC9ORnwRWYZ2LM2c1-1" edge="1">
          <mxGeometry relative="1" as="geometry">
            <Array as="points">
              <mxPoint x="1268" y="1088" />
              <mxPoint x="1268" y="1388" />
            </Array>
          </mxGeometry>
        </mxCell>
        <mxCell id="HuZAC9ORnwRWYZ2LM2c1-14" style="edgeStyle=orthogonalEdgeStyle;rounded=0;orthogonalLoop=1;jettySize=auto;html=1;exitX=0;exitY=0;exitDx=119.99999999999999;exitDy=50;exitPerimeter=0;entryX=0;entryY=0.5;entryDx=0;entryDy=0;" parent="1" source="l1szmI_GFWI639Pi0zfL-131" target="HuZAC9ORnwRWYZ2LM2c1-3" edge="1">
          <mxGeometry relative="1" as="geometry">
            <Array as="points">
              <mxPoint x="1268" y="1088" />
              <mxPoint x="1268" y="1548" />
            </Array>
          </mxGeometry>
        </mxCell>
        <mxCell id="HuZAC9ORnwRWYZ2LM2c1-15" style="edgeStyle=orthogonalEdgeStyle;rounded=0;orthogonalLoop=1;jettySize=auto;html=1;exitX=0;exitY=0;exitDx=119.99999999999999;exitDy=50;exitPerimeter=0;entryX=0;entryY=0.5;entryDx=0;entryDy=0;" parent="1" source="l1szmI_GFWI639Pi0zfL-131" target="HuZAC9ORnwRWYZ2LM2c1-5" edge="1">
          <mxGeometry relative="1" as="geometry">
            <Array as="points">
              <mxPoint x="1269" y="1088" />
              <mxPoint x="1269" y="1708" />
            </Array>
          </mxGeometry>
        </mxCell>
        <mxCell id="HuZAC9ORnwRWYZ2LM2c1-16" style="edgeStyle=orthogonalEdgeStyle;rounded=0;orthogonalLoop=1;jettySize=auto;html=1;exitX=0;exitY=0;exitDx=119.99999999999999;exitDy=50;exitPerimeter=0;entryX=0;entryY=0.5;entryDx=0;entryDy=0;" parent="1" source="l1szmI_GFWI639Pi0zfL-131" target="HuZAC9ORnwRWYZ2LM2c1-7" edge="1">
          <mxGeometry relative="1" as="geometry">
            <Array as="points">
              <mxPoint x="1268" y="1088" />
              <mxPoint x="1268" y="1868" />
            </Array>
          </mxGeometry>
        </mxCell>
        <mxCell id="HuZAC9ORnwRWYZ2LM2c1-17" style="edgeStyle=orthogonalEdgeStyle;rounded=0;orthogonalLoop=1;jettySize=auto;html=1;exitX=0;exitY=0;exitDx=119.99999999999999;exitDy=50;exitPerimeter=0;entryX=0;entryY=0.5;entryDx=0;entryDy=0;" parent="1" source="l1szmI_GFWI639Pi0zfL-131" target="HuZAC9ORnwRWYZ2LM2c1-9" edge="1">
          <mxGeometry relative="1" as="geometry">
            <Array as="points">
              <mxPoint x="1268" y="1088" />
              <mxPoint x="1268" y="2028" />
            </Array>
          </mxGeometry>
        </mxCell>
        <mxCell id="HuZAC9ORnwRWYZ2LM2c1-23" value="" style="edgeStyle=orthogonalEdgeStyle;rounded=0;orthogonalLoop=1;jettySize=auto;html=1;" parent="1" source="HuZAC9ORnwRWYZ2LM2c1-20" target="HuZAC9ORnwRWYZ2LM2c1-22" edge="1">
          <mxGeometry relative="1" as="geometry" />
        </mxCell>
        <mxCell id="HuZAC9ORnwRWYZ2LM2c1-30" style="edgeStyle=orthogonalEdgeStyle;rounded=0;orthogonalLoop=1;jettySize=auto;html=1;exitX=0.5;exitY=0;exitDx=0;exitDy=0;entryX=0.5;entryY=1;entryDx=0;entryDy=0;" parent="1" source="HuZAC9ORnwRWYZ2LM2c1-20" target="HuZAC9ORnwRWYZ2LM2c1-28" edge="1">
          <mxGeometry relative="1" as="geometry" />
        </mxCell>
        <mxCell id="HuZAC9ORnwRWYZ2LM2c1-20" value="setBedtime" style="shape=hexagon;perimeter=hexagonPerimeter2;whiteSpace=wrap;html=1;fixedSize=1;" parent="1" vertex="1">
          <mxGeometry x="1613.2191489361703" y="1508.01" width="120" height="80" as="geometry" />
        </mxCell>
        <mxCell id="HuZAC9ORnwRWYZ2LM2c1-25" value="" style="edgeStyle=orthogonalEdgeStyle;rounded=0;orthogonalLoop=1;jettySize=auto;html=1;" parent="1" source="HuZAC9ORnwRWYZ2LM2c1-22" target="HuZAC9ORnwRWYZ2LM2c1-24" edge="1">
          <mxGeometry relative="1" as="geometry" />
        </mxCell>
        <mxCell id="HuZAC9ORnwRWYZ2LM2c1-22" value="setRoutines" style="shape=hexagon;perimeter=hexagonPerimeter2;whiteSpace=wrap;html=1;fixedSize=1;" parent="1" vertex="1">
          <mxGeometry x="1813.2191489361703" y="1508.01" width="120" height="80" as="geometry" />
        </mxCell>
        <mxCell id="HuZAC9ORnwRWYZ2LM2c1-33" style="edgeStyle=orthogonalEdgeStyle;rounded=0;orthogonalLoop=1;jettySize=auto;html=1;exitX=0.5;exitY=0;exitDx=0;exitDy=0;entryX=0.5;entryY=1;entryDx=0;entryDy=0;" parent="1" source="HuZAC9ORnwRWYZ2LM2c1-24" target="HuZAC9ORnwRWYZ2LM2c1-34" edge="1">
          <mxGeometry relative="1" as="geometry">
            <mxPoint x="2132.5" y="1428.0100000000002" as="targetPoint" />
          </mxGeometry>
        </mxCell>
        <mxCell id="HuZAC9ORnwRWYZ2LM2c1-85" value="" style="edgeStyle=orthogonalEdgeStyle;rounded=0;orthogonalLoop=1;jettySize=auto;html=1;" parent="1" source="HuZAC9ORnwRWYZ2LM2c1-24" target="HuZAC9ORnwRWYZ2LM2c1-84" edge="1">
          <mxGeometry relative="1" as="geometry" />
        </mxCell>
        <mxCell id="HuZAC9ORnwRWYZ2LM2c1-24" value="createActivites" style="shape=hexagon;perimeter=hexagonPerimeter2;whiteSpace=wrap;html=1;fixedSize=1;" parent="1" vertex="1">
          <mxGeometry x="2013.2191489361703" y="1508.01" width="120" height="80" as="geometry" />
        </mxCell>
        <mxCell id="HuZAC9ORnwRWYZ2LM2c1-29" value="" style="edgeStyle=orthogonalEdgeStyle;rounded=0;orthogonalLoop=1;jettySize=auto;html=1;" parent="1" source="HuZAC9ORnwRWYZ2LM2c1-26" target="HuZAC9ORnwRWYZ2LM2c1-28" edge="1">
          <mxGeometry relative="1" as="geometry" />
        </mxCell>
        <mxCell id="HuZAC9ORnwRWYZ2LM2c1-26" value="setHeightAndWeight" style="shape=hexagon;perimeter=hexagonPerimeter2;whiteSpace=wrap;html=1;fixedSize=1;" parent="1" vertex="1">
          <mxGeometry x="1613.22" y="1348.01" width="163.78" height="80" as="geometry" />
        </mxCell>
        <mxCell id="HuZAC9ORnwRWYZ2LM2c1-32" value="" style="edgeStyle=orthogonalEdgeStyle;rounded=0;orthogonalLoop=1;jettySize=auto;html=1;" parent="1" source="HuZAC9ORnwRWYZ2LM2c1-28" target="HuZAC9ORnwRWYZ2LM2c1-34" edge="1">
          <mxGeometry relative="1" as="geometry">
            <mxPoint x="2057" y="1388.0100000000002" as="targetPoint" />
          </mxGeometry>
        </mxCell>
        <mxCell id="HuZAC9ORnwRWYZ2LM2c1-28" value="getOrSetBedTime" style="shape=hexagon;perimeter=hexagonPerimeter2;whiteSpace=wrap;html=1;fixedSize=1;" parent="1" vertex="1">
          <mxGeometry x="1857" y="1348.01" width="120" height="80" as="geometry" />
        </mxCell>
        <mxCell id="l1szmI_GFWI639Pi0zfL-64" value="Journeys Tour" style="text;html=1;strokeColor=none;fillColor=none;align=center;verticalAlign=middle;whiteSpace=wrap;rounded=0;fontSize=22;fontStyle=1" parent="1" vertex="1">
          <mxGeometry x="1113.0737253073132" y="857" width="490.9999641268475" height="30" as="geometry" />
        </mxCell>
        <mxCell id="l1szmI_GFWI639Pi0zfL-42" value="SpiritualClass&lt;br&gt;(the illuminated)" style="shape=step;perimeter=stepPerimeter;whiteSpace=wrap;html=1;fixedSize=1;" parent="1" vertex="1">
          <mxGeometry x="1362.1659574468085" y="1048.01" width="160.70212765957447" height="80" as="geometry" />
        </mxCell>
        <mxCell id="l1szmI_GFWI639Pi0zfL-132" style="edgeStyle=orthogonalEdgeStyle;rounded=0;orthogonalLoop=1;jettySize=auto;html=1;exitX=0;exitY=0;exitDx=120.00000000000001;exitDy=50;exitPerimeter=0;entryX=0;entryY=0.5;entryDx=0;entryDy=0;labelBackgroundColor=#FFFFCC;fontSize=22;fontColor=#000066;strokeColor=#000000;strokeWidth=1;" parent="1" source="l1szmI_GFWI639Pi0zfL-131" target="l1szmI_GFWI639Pi0zfL-42" edge="1">
          <mxGeometry relative="1" as="geometry" />
        </mxCell>
        <mxCell id="l1szmI_GFWI639Pi0zfL-131" value="&lt;font style=&quot;font-size: 12px;&quot;&gt;GlobalContainer&lt;/font&gt;" style="shape=cube;whiteSpace=wrap;html=1;boundedLbl=1;backgroundOutline=1;darkOpacity=0.05;darkOpacity2=0.1;fontSize=22;fontColor=#000066;fillColor=#FF9933;" parent="1" vertex="1">
          <mxGeometry x="1087" y="1038" width="120" height="80" as="geometry" />
        </mxCell>
        <mxCell id="HuZAC9ORnwRWYZ2LM2c1-37" style="edgeStyle=orthogonalEdgeStyle;rounded=0;orthogonalLoop=1;jettySize=auto;html=1;exitX=1;exitY=0.5;exitDx=0;exitDy=0;entryX=0;entryY=0.5;entryDx=0;entryDy=0;" parent="1" source="HuZAC9ORnwRWYZ2LM2c1-34" target="HuZAC9ORnwRWYZ2LM2c1-36" edge="1">
          <mxGeometry relative="1" as="geometry" />
        </mxCell>
        <mxCell id="HuZAC9ORnwRWYZ2LM2c1-42" style="edgeStyle=orthogonalEdgeStyle;rounded=0;orthogonalLoop=1;jettySize=auto;html=1;exitX=1;exitY=0.5;exitDx=0;exitDy=0;entryX=0;entryY=0.5;entryDx=0;entryDy=0;" parent="1" source="HuZAC9ORnwRWYZ2LM2c1-34" target="HuZAC9ORnwRWYZ2LM2c1-38" edge="1">
          <mxGeometry relative="1" as="geometry" />
        </mxCell>
        <mxCell id="HuZAC9ORnwRWYZ2LM2c1-43" style="edgeStyle=orthogonalEdgeStyle;rounded=0;orthogonalLoop=1;jettySize=auto;html=1;exitX=1;exitY=0.5;exitDx=0;exitDy=0;entryX=0;entryY=0.5;entryDx=0;entryDy=0;" parent="1" source="HuZAC9ORnwRWYZ2LM2c1-34" target="HuZAC9ORnwRWYZ2LM2c1-40" edge="1">
          <mxGeometry relative="1" as="geometry" />
        </mxCell>
        <mxCell id="HuZAC9ORnwRWYZ2LM2c1-48" style="edgeStyle=orthogonalEdgeStyle;rounded=0;orthogonalLoop=1;jettySize=auto;html=1;exitX=1;exitY=0.5;exitDx=0;exitDy=0;entryX=0;entryY=0.5;entryDx=0;entryDy=0;" parent="1" source="HuZAC9ORnwRWYZ2LM2c1-34" target="HuZAC9ORnwRWYZ2LM2c1-44" edge="1">
          <mxGeometry relative="1" as="geometry" />
        </mxCell>
        <mxCell id="HuZAC9ORnwRWYZ2LM2c1-50" style="edgeStyle=orthogonalEdgeStyle;rounded=0;orthogonalLoop=1;jettySize=auto;html=1;exitX=1;exitY=0.5;exitDx=0;exitDy=0;entryX=0;entryY=0.5;entryDx=0;entryDy=0;" parent="1" source="HuZAC9ORnwRWYZ2LM2c1-34" target="HuZAC9ORnwRWYZ2LM2c1-46" edge="1">
          <mxGeometry relative="1" as="geometry" />
        </mxCell>
        <mxCell id="HuZAC9ORnwRWYZ2LM2c1-71" style="edgeStyle=orthogonalEdgeStyle;rounded=0;orthogonalLoop=1;jettySize=auto;html=1;exitX=1;exitY=0.5;exitDx=0;exitDy=0;entryX=0;entryY=0.5;entryDx=0;entryDy=0;" parent="1" source="HuZAC9ORnwRWYZ2LM2c1-34" target="HuZAC9ORnwRWYZ2LM2c1-69" edge="1">
          <mxGeometry relative="1" as="geometry" />
        </mxCell>
        <mxCell id="HuZAC9ORnwRWYZ2LM2c1-34" value="setYourActivities" style="shape=hexagon;perimeter=hexagonPerimeter2;whiteSpace=wrap;html=1;fixedSize=1;" parent="1" vertex="1">
          <mxGeometry x="2059" y="1348.01" width="151" height="80" as="geometry" />
        </mxCell>
        <mxCell id="HuZAC9ORnwRWYZ2LM2c1-54" value="" style="edgeStyle=orthogonalEdgeStyle;rounded=0;orthogonalLoop=1;jettySize=auto;html=1;" parent="1" source="HuZAC9ORnwRWYZ2LM2c1-36" target="HuZAC9ORnwRWYZ2LM2c1-53" edge="1">
          <mxGeometry relative="1" as="geometry" />
        </mxCell>
        <mxCell id="HuZAC9ORnwRWYZ2LM2c1-36" value="force" style="ellipse;whiteSpace=wrap;html=1;fontSize=12;fillColor=#d5e8d4;strokeColor=#82b366;flipV=0;flipH=0;" parent="1" vertex="1">
          <mxGeometry x="2270" y="1243" width="40" height="40" as="geometry" />
        </mxCell>
        <mxCell id="HuZAC9ORnwRWYZ2LM2c1-66" style="edgeStyle=orthogonalEdgeStyle;rounded=0;orthogonalLoop=1;jettySize=auto;html=1;exitX=1;exitY=0.5;exitDx=0;exitDy=0;entryX=0;entryY=0.5;entryDx=0;entryDy=0;" parent="1" source="HuZAC9ORnwRWYZ2LM2c1-38" target="HuZAC9ORnwRWYZ2LM2c1-57" edge="1">
          <mxGeometry relative="1" as="geometry" />
        </mxCell>
        <mxCell id="HuZAC9ORnwRWYZ2LM2c1-38" value="movement" style="ellipse;whiteSpace=wrap;html=1;fontSize=12;fillColor=#d5e8d4;strokeColor=#82b366;flipV=0;flipH=0;" parent="1" vertex="1">
          <mxGeometry x="2270" y="1307" width="40" height="40" as="geometry" />
        </mxCell>
        <mxCell id="HuZAC9ORnwRWYZ2LM2c1-65" style="edgeStyle=orthogonalEdgeStyle;rounded=0;orthogonalLoop=1;jettySize=auto;html=1;exitX=1;exitY=0.5;exitDx=0;exitDy=0;entryX=0;entryY=0.5;entryDx=0;entryDy=0;" parent="1" source="HuZAC9ORnwRWYZ2LM2c1-40" target="HuZAC9ORnwRWYZ2LM2c1-59" edge="1">
          <mxGeometry relative="1" as="geometry" />
        </mxCell>
        <mxCell id="HuZAC9ORnwRWYZ2LM2c1-67" style="edgeStyle=orthogonalEdgeStyle;rounded=0;orthogonalLoop=1;jettySize=auto;html=1;exitX=1;exitY=0.5;exitDx=0;exitDy=0;entryX=0;entryY=0.5;entryDx=0;entryDy=0;" parent="1" source="HuZAC9ORnwRWYZ2LM2c1-40" target="HuZAC9ORnwRWYZ2LM2c1-61" edge="1">
          <mxGeometry relative="1" as="geometry" />
        </mxCell>
        <mxCell id="HuZAC9ORnwRWYZ2LM2c1-40" value="flexibility" style="ellipse;whiteSpace=wrap;html=1;fontSize=12;fillColor=#d5e8d4;strokeColor=#82b366;flipV=0;flipH=0;" parent="1" vertex="1">
          <mxGeometry x="2270" y="1368" width="40" height="40" as="geometry" />
        </mxCell>
        <mxCell id="HuZAC9ORnwRWYZ2LM2c1-72" style="edgeStyle=orthogonalEdgeStyle;rounded=0;orthogonalLoop=1;jettySize=auto;html=1;exitX=1;exitY=0.5;exitDx=0;exitDy=0;entryX=0;entryY=0.5;entryDx=0;entryDy=0;" parent="1" source="HuZAC9ORnwRWYZ2LM2c1-44" target="HuZAC9ORnwRWYZ2LM2c1-63" edge="1">
          <mxGeometry relative="1" as="geometry" />
        </mxCell>
        <mxCell id="HuZAC9ORnwRWYZ2LM2c1-78" style="edgeStyle=orthogonalEdgeStyle;rounded=0;orthogonalLoop=1;jettySize=auto;html=1;exitX=1;exitY=0.5;exitDx=0;exitDy=0;" parent="1" source="HuZAC9ORnwRWYZ2LM2c1-44" target="HuZAC9ORnwRWYZ2LM2c1-76" edge="1">
          <mxGeometry relative="1" as="geometry" />
        </mxCell>
        <mxCell id="HuZAC9ORnwRWYZ2LM2c1-83" style="edgeStyle=orthogonalEdgeStyle;rounded=0;orthogonalLoop=1;jettySize=auto;html=1;exitX=1;exitY=0.5;exitDx=0;exitDy=0;entryX=0;entryY=0.5;entryDx=0;entryDy=0;" parent="1" source="HuZAC9ORnwRWYZ2LM2c1-44" target="HuZAC9ORnwRWYZ2LM2c1-81" edge="1">
          <mxGeometry relative="1" as="geometry" />
        </mxCell>
        <mxCell id="HuZAC9ORnwRWYZ2LM2c1-44" value="nutrition" style="ellipse;whiteSpace=wrap;html=1;fontSize=12;fillColor=#d5e8d4;strokeColor=#82b366;flipV=0;flipH=0;" parent="1" vertex="1">
          <mxGeometry x="2270" y="1178" width="40" height="40" as="geometry" />
        </mxCell>
        <mxCell id="HuZAC9ORnwRWYZ2LM2c1-46" value="botanical" style="ellipse;whiteSpace=wrap;html=1;fontSize=12;fillColor=#d5e8d4;strokeColor=#82b366;flipV=0;flipH=0;" parent="1" vertex="1">
          <mxGeometry x="2270" y="1114.01" width="40" height="40" as="geometry" />
        </mxCell>
        <mxCell id="HuZAC9ORnwRWYZ2LM2c1-53" value="workout" style="whiteSpace=wrap;html=1;fillColor=#d5e8d4;strokeColor=#82b366;" parent="1" vertex="1">
          <mxGeometry x="2350" y="1250" width="66" height="25" as="geometry" />
        </mxCell>
        <mxCell id="HuZAC9ORnwRWYZ2LM2c1-57" value="miFit" style="whiteSpace=wrap;html=1;fillColor=#d5e8d4;strokeColor=#82b366;" parent="1" vertex="1">
          <mxGeometry x="2350" y="1315" width="66" height="25" as="geometry" />
        </mxCell>
        <mxCell id="HuZAC9ORnwRWYZ2LM2c1-59" value="dogDown" style="whiteSpace=wrap;html=1;fillColor=#d5e8d4;strokeColor=#82b366;" parent="1" vertex="1">
          <mxGeometry x="2350" y="1376" width="66" height="25" as="geometry" />
        </mxCell>
        <mxCell id="HuZAC9ORnwRWYZ2LM2c1-61" value="respiration" style="whiteSpace=wrap;html=1;fillColor=#d5e8d4;strokeColor=#82b366;" parent="1" vertex="1">
          <mxGeometry x="2350" y="1424" width="66" height="25" as="geometry" />
        </mxCell>
        <mxCell id="HuZAC9ORnwRWYZ2LM2c1-63" value="drinkWater" style="whiteSpace=wrap;html=1;fillColor=#d5e8d4;strokeColor=#82b366;" parent="1" vertex="1">
          <mxGeometry x="2350" y="1205.5" width="66" height="25" as="geometry" />
        </mxCell>
        <mxCell id="HuZAC9ORnwRWYZ2LM2c1-75" style="edgeStyle=orthogonalEdgeStyle;rounded=0;orthogonalLoop=1;jettySize=auto;html=1;exitX=1;exitY=0.5;exitDx=0;exitDy=0;" parent="1" source="HuZAC9ORnwRWYZ2LM2c1-69" target="HuZAC9ORnwRWYZ2LM2c1-73" edge="1">
          <mxGeometry relative="1" as="geometry" />
        </mxCell>
        <mxCell id="HuZAC9ORnwRWYZ2LM2c1-69" value="sleep" style="ellipse;whiteSpace=wrap;html=1;fontSize=12;fillColor=#d5e8d4;strokeColor=#82b366;flipV=0;flipH=0;" parent="1" vertex="1">
          <mxGeometry x="2270" y="1048.01" width="40" height="40" as="geometry" />
        </mxCell>
        <mxCell id="HuZAC9ORnwRWYZ2LM2c1-73" value="sleepCycle" style="whiteSpace=wrap;html=1;fillColor=#d5e8d4;strokeColor=#82b366;" parent="1" vertex="1">
          <mxGeometry x="2350" y="1055.51" width="66" height="25" as="geometry" />
        </mxCell>
        <mxCell id="HuZAC9ORnwRWYZ2LM2c1-76" value="makeRecipe" style="whiteSpace=wrap;html=1;fillColor=#d5e8d4;strokeColor=#82b366;" parent="1" vertex="1">
          <mxGeometry x="2350" y="1170.5" width="66" height="25" as="geometry" />
        </mxCell>
        <mxCell id="HuZAC9ORnwRWYZ2LM2c1-86" style="edgeStyle=orthogonalEdgeStyle;rounded=0;orthogonalLoop=1;jettySize=auto;html=1;exitX=1;exitY=0.5;exitDx=0;exitDy=0;entryX=0.5;entryY=0;entryDx=0;entryDy=0;" parent="1" source="HuZAC9ORnwRWYZ2LM2c1-81" target="HuZAC9ORnwRWYZ2LM2c1-84" edge="1">
          <mxGeometry relative="1" as="geometry">
            <Array as="points">
              <mxPoint x="2436" y="1148" />
              <mxPoint x="2436" y="1475" />
              <mxPoint x="2273" y="1475" />
            </Array>
          </mxGeometry>
        </mxCell>
        <mxCell id="HuZAC9ORnwRWYZ2LM2c1-81" value="makeDispense" style="whiteSpace=wrap;html=1;fillColor=#d5e8d4;strokeColor=#82b366;" parent="1" vertex="1">
          <mxGeometry x="2350" y="1135" width="66" height="25" as="geometry" />
        </mxCell>
        <mxCell id="HuZAC9ORnwRWYZ2LM2c1-84" value="createInventory" style="shape=hexagon;perimeter=hexagonPerimeter2;whiteSpace=wrap;html=1;fixedSize=1;" parent="1" vertex="1">
          <mxGeometry x="2213.2191489361703" y="1508.01" width="120" height="80" as="geometry" />
        </mxCell>
        <mxCell id="hYCsNhbhX6GddkuJcz4E-1" style="edgeStyle=orthogonalEdgeStyle;rounded=0;orthogonalLoop=1;jettySize=auto;html=1;entryX=0.5;entryY=0;entryDx=0;entryDy=0;" edge="1" parent="1" source="l1szmI_GFWI639Pi0zfL-60" target="HuZAC9ORnwRWYZ2LM2c1-84">
          <mxGeometry relative="1" as="geometry">
            <Array as="points">
              <mxPoint x="2487" y="966" />
              <mxPoint x="2487" y="1492" />
              <mxPoint x="2273" y="1492" />
            </Array>
          </mxGeometry>
        </mxCell>
        <mxCell id="hYCsNhbhX6GddkuJcz4E-2" style="edgeStyle=orthogonalEdgeStyle;rounded=0;orthogonalLoop=1;jettySize=auto;html=1;exitX=0.5;exitY=1;exitDx=0;exitDy=0;entryX=0.5;entryY=0;entryDx=0;entryDy=0;" edge="1" parent="1" source="l1szmI_GFWI639Pi0zfL-58" target="HuZAC9ORnwRWYZ2LM2c1-24">
          <mxGeometry relative="1" as="geometry">
            <Array as="points">
              <mxPoint x="1859" y="1232" />
              <mxPoint x="2015" y="1232" />
              <mxPoint x="2015" y="1468" />
              <mxPoint x="2073" y="1468" />
            </Array>
          </mxGeometry>
        </mxCell>
        <mxCell id="l1szmI_GFWI639Pi0zfL-76" value="FinancePage" style="shape=process;whiteSpace=wrap;html=1;backgroundOutline=1;fontSize=16;" parent="1" vertex="1">
          <mxGeometry x="3465" y="947.38" width="167" height="41.25" as="geometry" />
        </mxCell>
        <mxCell id="hYCsNhbhX6GddkuJcz4E-3" value="configPage" style="shape=process;whiteSpace=wrap;html=1;backgroundOutline=1;fontSize=16;" vertex="1" parent="1">
          <mxGeometry x="3851" y="794" width="167" height="41.25" as="geometry" />
        </mxCell>
      </root>
    </mxGraphModel>
  </diagram>
</mxfile>
